<?xml version="1.0" encoding="UTF-8"?>
<!DOCTYPE svg PUBLIC "-//W3C//DTD SVG 1.1//EN" "http://www.w3.org/Graphics/SVG/1.1/DTD/svg11.dtd">
<!-- Creator: CorelDRAW X6 -->
<svg xmlns="http://www.w3.org/2000/svg" xml:space="preserve" width="279.4mm" height="215.9mm" version="1.1" style="shape-rendering:geometricPrecision; text-rendering:geometricPrecision; image-rendering:optimizeQuality; fill-rule:evenodd; clip-rule:evenodd"
viewBox="0 0 27940 21590"
 xmlns:xlink="http://www.w3.org/1999/xlink">
 <defs>
  <style type="text/css">
   <![CDATA[
    .str0 {stroke:#6ABD50;stroke-width:70}
    .fil4 {fill:none}
    .fil1 {fill:#A2DC6B}
    .fil2 {fill:#A2DC6C}
    .fil0 {fill:#6ABD50}
    .fil3 {fill:#A2DC6C;fill-rule:nonzero}
    .fil5 {fill:#6ABD50;fill-rule:nonzero}
   ]]>
  </style>
 </defs>
 <g id="Layer_x0020_1">
  <metadata id="CorelCorpID_0Corel-Layer"/>
  <g id="_346367256">
   <g>
    <g>
     <path class="fil0" d="M5438 9793c0,-702 0,-1404 0,-2106 1065,1019 2744,2439 2504,4078 -137,930 -950,1716 -1883,1827 -271,32 -559,12 -859,-64 837,-43 1367,-588 1449,-1090 92,-860 -341,-1119 -911,-1792 -248,-325 -299,-438 -299,-851z"/>
     <path class="fil1" d="M5311 9614c-4,987 -8,1973 -13,2960 17,336 132,469 453,630 -724,461 -1527,5 -1738,-718 -239,-1165 634,-1964 1297,-2872z"/>
     <path class="fil2" d="M5786 11595c-48,336 -15,978 -19,1348 6,140 65,189 193,87 135,-107 159,-314 172,-490 11,-300 -116,-748 -346,-945z"/>
    </g>
    <path class="fil3" d="M5770 7360c948,0 1807,384 2429,1006 622,622 1006,1480 1006,2429 0,948 -385,1807 -1006,2429 -622,622 -1480,1006 -2429,1006 -948,0 -1807,-385 -2429,-1006 -622,-622 -1006,-1480 -1006,-2429 0,-948 384,-1807 1006,-2429 622,-622 1480,-1006 2429,-1006zm2243 1192c-574,-574 -1367,-929 -2243,-929 -876,0 -1669,355 -2243,929 -574,574 -929,1367 -929,2243 0,876 355,1669 929,2243 574,574 1367,929 2243,929 876,0 1669,-355 2243,-929 574,-574 929,-1367 929,-2243 0,-876 -355,-1669 -929,-2243z"/>
   </g>
   <g>
    <path class="fil0" d="M12239 13816l1742 0 0 -3868c0,-177 -17,-462 270,-486 45,6 93,26 145,58 116,132 107,241 107,398 0,1299 0,2598 0,3897l1742 0 0 -4403 0 -41 -1 0c-22,-921 -775,-1660 -1701,-1660 -612,0 -1149,324 -1449,809 -299,-486 -836,-809 -1449,-809 -926,0 -1679,740 -1701,1660l-1 0 0 41 0 4403 1742 0c0,-1299 0,-2598 0,-3897 0,-157 -9,-267 107,-398 49,-49 107,-76 167,-82 310,2 287,331 279,487l0 3890z"/>
    <path class="fil0" d="M21213 11438c214,-193 244,-111 407,113 216,300 412,583 611,894 258,419 180,501 71,659 -476,597 -1373,946 -2115,923 -1807,0 -3272,-1465 -3272,-3272 0,-1807 1465,-3272 3272,-3272 814,0 1559,298 2132,790 296,254 198,297 14,640 -174,321 -347,641 -521,962 -180,282 -239,478 -543,249 -86,-80 -189,-156 -278,-233 -185,-134 -445,-243 -690,-243 -611,0 -1107,495 -1107,1107 0,611 495,1107 1107,1107 353,0 667,-180 911,-424z"/>
    <path class="fil0" d="M25597 12088l-452 -1c-60,-6 -118,-32 -167,-82 -116,-132 -116,-241 -116,-398 0,-1299 0,-2598 0,-3897l-1742 0 0 4403 0 41 1 0c22,921 775,1660 1701,1660l784 2 -7 -1728z"/>
   </g>
  </g>
  <path class="fil4 str0" d="M25716 6690c323,0 585,281 585,627 0,346 -262,627 -585,627 -323,0 -585,-281 -585,-627 0,-346 262,-627 585,-627z"/>
  <path class="fil5" d="M25431 6960l313 0c41,0 80,3 117,10 37,7 69,18 97,33 28,15 50,36 66,63 16,26 25,59 25,98 0,47 -15,88 -45,121 -30,33 -73,54 -130,63l206 283 -214 0 -169 -268 -88 0 0 268 -178 0 0 -671zm178 278l105 0c16,0 33,0 51,-1 18,-1 34,-4 49,-9 14,-5 26,-12 36,-22 9,-10 14,-24 14,-43 0,-17 -4,-31 -13,-41 -8,-10 -19,-18 -32,-23 -13,-5 -28,-9 -45,-11 -17,-2 -33,-3 -49,-3l-116 0 0 153z"/>
 </g>
</svg>
